PathFileType	4	(X/Y/Z)	Kaydara	
DataRate	CameraRate	NumFrames	NumMarkers	Units	OrigDataRate	OrigDataStartFrame	OrigNumFrames	
120.00	120.00	4	72	mm	120.00	202	268	
Frame#	Time	Hips			RightUpLeg			RightLeg			RightFoot			RightFoot_End			LeftUpLeg			LeftLeg			LeftFoot			LeftFoot_End			Spine			Spine1			Spine2			Spine3			Neck			Head			Head_End			RightShoulder			RightArm			RightForeArm			RightHand			RightHandThumb1			RightHandThumb2			RightHandThumb3			RightHandThumb3_End			RightInHandIndex			RightHandIndex1			RightHandIndex2			RightHandIndex3			RightHandIndex3_End			RightInHandMiddle			RightHandMiddle1			RightHandMiddle2			RightHandMiddle3			RightHandMiddle3_End			RightInHandRing			RightHandRing1			RightHandRing2			RightHandRing3			RightHandRing3_End			RightInHandPinky			RightHandPinky1			RightHandPinky2			RightHandPinky3			RightHandPinky3_End			LeftShoulder			LeftArm			LeftForeArm			LeftHand			LeftHandThumb1			LeftHandThumb2			LeftHandThumb3			LeftHandThumb3_End			LeftInHandIndex			LeftHandIndex1			LeftHandIndex2			LeftHandIndex3			LeftHandIndex3_End			LeftInHandMiddle			LeftHandMiddle1			LeftHandMiddle2			LeftHandMiddle3			LeftHandMiddle3_End			LeftInHandRing			LeftHandRing1			LeftHandRing2			LeftHandRing3			LeftHandRing3_End			LeftInHandPinky			LeftHandPinky1			LeftHandPinky2			LeftHandPinky3			LeftHandPinky3_End			
		X1	Y1	Z1	X2	Y2	Z2	X3	Y3	Z3	X4	Y4	Z4	X5	Y5	Z5	X6	Y6	Z6	X7	Y7	Z7	X8	Y8	Z8	X9	Y9	Z9	X10	Y10	Z10	X11	Y11	Z11	X12	Y12	Z12	X13	Y13	Z13	X14	Y14	Z14	X15	Y15	Z15	X16	Y16	Z16	X17	Y17	Z17	X18	Y18	Z18	X19	Y19	Z19	X20	Y20	Z20	X21	Y21	Z21	X22	Y22	Z22	X23	Y23	Z23	X24	Y24	Z24	X25	Y25	Z25	X26	Y26	Z26	X27	Y27	Z27	X28	Y28	Z28	X29	Y29	Z29	X30	Y30	Z30	X31	Y31	Z31	X32	Y32	Z32	X33	Y33	Z33	X34	Y34	Z34	X35	Y35	Z35	X36	Y36	Z36	X37	Y37	Z37	X38	Y38	Z38	X39	Y39	Z39	X40	Y40	Z40	X41	Y41	Z41	X42	Y42	Z42	X43	Y43	Z43	X44	Y44	Z44	X45	Y45	Z45	X46	Y46	Z46	X47	Y47	Z47	X48	Y48	Z48	X49	Y49	Z49	X50	Y50	Z50	X51	Y51	Z51	X52	Y52	Z52	X53	Y53	Z53	X54	Y54	Z54	X55	Y55	Z55	X56	Y56	Z56	X57	Y57	Z57	X58	Y58	Z58	X59	Y59	Z59	X60	Y60	Z60	X61	Y61	Z61	X62	Y62	Z62	X63	Y63	Z63	X64	Y64	Z64	X65	Y65	Z65	X66	Y66	Z66	X67	Y67	Z67	X68	Y68	Z68	X69	Y69	Z69	X70	Y70	Z70	X71	Y71	Z71	X72	Y72	Z72	

202	1.675	446.8050000000003	859.65103	-201.189	507.14860000000044	831.2889800000002	-266.61828	389.5742399999999	429.50120999999996	-272.49922000000004	546.6774000000005	52.821079999999995	-383.6914499999999	490.35399000000143	-31.51327	-221.66057999999992	395.16867999999886	859.99545	-121.72225	287.1878400000005	466.81162000000006	-26.615379999999995	223.36153000000013	60.203939999999996	66.10074	289.7129299999997	-7.016089999999998	232.28608000000003	404.99092999999993	983.7452499999999	-258.59216	356.1149800000003	1053.6296999999997	-305.05807	299.9810899999993	1122.28327	-353.67611999999997	238.32661999999982	1180.6739300000002	-401.03454000000005	169.86947000000055	1240.6080900000002	-449.26453000000004	102.21115999999984	1300.0416400000001	-417.06895000000003	66.10437000000002	1381.72688	-284.91725	205.23905999999988	1214.2051799999997	-461.28468	258.22515999999996	1161.19696	-564.56949	217.82938000000104	899.4095	-546.2393299999999	250.29982999999993	727.7052200000003	-738.81492	280.56789000000026	731.5164499999997	-764.6265599999999	285.10288000000037	729.6630699999998	-801.12664	285.6611899999989	724.7556800000002	-826.22856	283.9025299999994	717.5706299999997	-846.8839600000001	276.28233	718.2525399999998	-765.1214099999997	296.57172000000173	693.20128	-807.3467899999999	298.6343399999987	679.2333900000002	-840.6728699999999	293.84210000000166	677.3416799999999	-860.5365900000002	285.7780700000003	680.35742	-876.4009899999999	267.93188999999984	709.45239	-762.9775499999998	283.20822000000044	680.2571499999999	-803.00218	284.27626000000055	663.93982	-838.95264	277.92703999999867	661.1414300000001	-862.7183699999999	268.82762	664.1902900000002	-879.98011	261.62400999999954	703.81054	-760.35169	270.15924000000086	672.56153	-793.84376	269.8560200000011	657.28666	-824.6915199999999	263.0762900000009	654.0283999999999	-847.35694	254.2099500000004	656.63021	-863.46481	252.90369999999893	698.5364600000003	-756.36733	255.72998000000007	666.4013899999998	-784.5303100000001	253.52377999999953	652.6643599999998	-808.32679	247.62884999999915	649.55952	-824.42113	239.22811999999976	651.4451899999999	-838.4380699999999	181.27142000000003	1230.92412	-404.35487	137.74301000000014	1212.14847	-285.25346	119.67770000000019	996.80275	-438.26248999999996	256.80599000000075	790.7527400000002	-514.34132	236.8320500000009	798.9258800000001	-547.9740900000002	237.94408000000112	788.08547	-583.1522999999999	239.14447999999902	776.44858	-605.9040500000001	240.50962999999865	763.2505500000001	-623.37722	234.15297999999893	785.6529299999997	-544.6284199999999	211.39294999999947	759.96767	-585.18032	208.23255000000063	738.72684	-614.3148800000002	214.64598999999907	728.9964100000001	-631.2056499999999	225.60579000000143	723.2865300000001	-644.3617299999999	236.70638999999937	775.2692300000001	-538.51062	215.8844599999993	744.6010000000001	-574.75434	212.86240999999973	720.13203	-605.60832	220.8047200000001	707.77313	-625.5364600000001	232.89624999999978	701.2243299999999	-639.7128700000001	238.9606900000017	768.5909299999998	-533.14094	221.87522999999965	735.31572	-560.92432	219.7114700000002	712.7172399999998	-586.8014399999998	227.62220999999954	700.12102	-605.4845099999999	239.10966000000008	693.6435899999998	-618.5583900000001	243.24614999999903	761.6194499999998	-525.8767699999999	229.77226999999948	726.8013200000001	-546.8518899999999	228.84873999999945	706.8671399999998	-565.86824	235.0102799999986	696.79022	-578.6709400000001	245.4115499999989	690.54054	-589.77758
203	1.683	446.8050000000003	859.65103	-201.189	499.85491	827.9844899999999	-271.25814	387.2081199999993	424.77296	-276.04237	546.1075700000001	51.42461000000001	-395.60415	495.8525900000004	-34.28975	-232.30658999999997	402.05285000000003	862.8702	-117.71280000000002	294.78894000000037	469.07498	-24.339999999999996	229.49916999999914	62.08359999999999	65.63299000000002	296.1543500000007	-6.648269999999997	231.07672	407.21766000000025	985.8294	-255.54683999999997	357.87621000000036	1056.0335800000003	-301.02840000000003	301.3228399999989	1124.95974	-348.7666500000001	239.6570700000011	1183.7917699999998	-395.5607499999999	171.07057000000077	1244.1424600000003	-443.08235	103.29775999999947	1303.2438700000002	-410.51826000000005	67.29906000000028	1384.8731400000001	-278.30251	205.45918999999958	1216.6722800000002	-455.54898000000003	253.75798000000032	1159.5411199999999	-558.9337400000001	203.9699300000011	900.3931200000001	-529.54063	220.9058299999997	717.23126	-713.3528999999999	250.02942999999868	717.5066799999998	-740.7145900000002	252.63226000000031	713.0601300000002	-777.1797900000001	251.6549100000011	706.54287	-801.89962	248.45339000000058	698.1834099999999	-821.9304300000001	244.9489199999989	704.53015	-740.13137	261.6057299999993	675.6347300000001	-781.48127	261.1855599999999	659.4768800000002	-813.8653899999999	255.31128999999964	656.62864	-833.3202600000001	246.66297000000122	659.12581	-848.9654900000002	236.20996999999988	696.4199500000001	-737.0290600000001	247.73305000000073	663.8482899999999	-775.6814300000001	246.05244999999923	645.24541	-810.47999	238.3788800000002	641.3429599999997	-833.69293	228.6309399999991	643.8487	-850.6859199999999	229.71790000000146	691.3592400000001	-733.74927	234.72246000000086	657.5758599999999	-765.4463700000001	231.9891800000005	640.4206699999997	-795.1655000000001	223.91376000000128	636.15681	-817.23153	214.42900999999983	638.2760900000001	-833.0553400000001	220.90961999999854	686.9010699999999	-729.0297499999999	220.43406999999934	652.9284499999999	-755.0958	216.2437800000007	637.8712199999999	-777.8018999999999	209.38530999999966	634.1226200000001	-793.36877	200.42612999999983	635.6324699999999	-807.0821199999999	183.6470100000006	1235.2371999999998	-398.32533	143.83286000000044	1220.63471	-277.35429	118.66580000000067	999.9154200000003	-421.44286	240.3711800000001	783.8419800000001	-495.93333000000007	218.67376999999942	789.31663	-529.04182	219.35330000000067	777.3304700000002	-563.85745	220.61708999999973	765.0032399999999	-586.23919	222.34696000000076	751.3217099999999	-603.30339	217.11059999999998	776.0118100000001	-525.15847	194.91669000000002	747.28833	-563.94765	192.32587000000058	724.8404599999999	-592.2206899999999	198.84892000000036	715.00576	-609.00878	209.73451000000023	709.6453999999998	-622.3719	220.64423999999963	766.0694999999998	-518.79979	200.90464999999858	732.6763999999998	-553.1938100000001	198.63184999999976	706.9595400000001	-583.08209	206.76768000000084	694.5080499999999	-602.8740699999998	218.80782	688.35785	-617.2710300000001	223.57733999999982	759.7714800000001	-513.30009	208.05321000000004	724.3576600000001	-539.29878	206.67132999999922	700.7466799999999	-564.31098	214.83714999999938	688.1010699999999	-582.8503900000001	226.3086999999996	682.01733	-596.1258	228.6231399999997	753.3980999999999	-505.9751500000001	217.05260999999882	716.9556199999997	-525.2591400000001	216.94937000000027	696.3373000000001	-543.5545000000001	223.39090000000033	686.28562	-556.2386800000002	233.83214000000044	680.41995	-567.5159500000001
204	1.692	446.8050000000003	859.65103	-201.189	497.4695899999988	826.8420699999999	-272.4870900000001	388.5947299999989	422.58062	-275.75431	548.1809499999999	52.24077999999999	-403.4793	504.65335999999843	-34.39123	-238.74055999999993	404.2579000000005	863.9002099999999	-116.61311000000005	297.11954999999944	469.95435	-23.732879999999994	230.28197999999975	63.059979999999996	65.53968	297.2316200000005	-6.336950000000002	230.58641	408.1486699999987	986.3918900000001	-254.90450000000004	359.12253000000055	1057.01045	-300.08452	302.83702000000085	1126.36633	-347.51597	241.29053999999996	1185.5775000000003	-393.9878100000001	172.7181899999996	1246.3082	-441.04343	105.04840999999942	1305.4536200000002	-408.34526	69.49355999999989	1387.80385	-276.45688999999993	206.02404000000024	1217.6578500000003	-453.79028	249.36067000000003	1156.0921399999997	-556.8279	190.42219999999998	900.56911	-515.17785	190.06290999999874	706.0178200000001	-687.72266	217.49600999999893	702.3561800000001	-716.54867	217.67359000000033	695.15843	-752.6654000000001	214.8377099999998	686.9803999999999	-776.7398300000002	209.9417200000007	677.4547299999998	-795.8880500000001	211.63598000000093	689.8312900000001	-714.7240299999999	223.96020999999928	656.9966799999999	-754.6265399999999	220.61303000000044	638.6415700000002	-785.64057	213.44169000000147	634.8237200000001	-804.4848600000001	204.07235000000037	636.78574	-819.7874299999999	202.59076000000096	682.5780700000001	-710.5594600000002	209.72227999999996	646.62764	-747.22562	204.82148000000052	625.7536399999999	-780.3932199999999	195.57044999999925	620.7420999999999	-802.8043	185.02745999999934	622.69181	-819.3906400000001	195.98999000000003	678.2187000000001	-706.5668799999999	196.95610999999917	642.0025	-735.86743	191.39620999999988	623.0025000000003	-764.0292099999999	181.78867000000082	617.7403900000002	-785.24966	171.55135999999948	619.37076	-800.6569400000001	187.20452999999907	674.71954	-701.06175	183.0279899999996	639.0899299999999	-724.44747	176.56088	622.7762500000001	-745.7050699999999	168.57838999999967	618.40632	-760.55774	158.94886000000042	619.54456	-773.84605	186.4793099999988	1238.31271	-396.46356	150.54279999999926	1228.4765000000002	-273.80872	118.0684599999995	1002.1654299999999	-407.37749999999994	223.56489000000147	776.7495900000001	-478.84052999999994	199.98525999999947	778.85593	-511.03502999999995	200.07974999999897	765.3485499999999	-545.29578	201.35523999999896	752.13256	-567.16382	203.45342999999957	737.85608	-583.69086	199.73503999999957	765.6641	-506.5122700000001	178.29856999999993	733.4196399999998	-542.8850699999999	176.32470999999896	709.53431	-570.00663	182.8804399999999	699.4961000000001	-586.6609899999999	193.55640999999923	694.4328299999997	-600.3061200000001	204.38654999999926	756.3565600000002	-499.91667000000007	185.99037000000044	719.87225	-531.82553	184.5359500000004	692.6832799999997	-560.43455	192.7808700000005	680.0325399999999	-580.05428	204.62550999999985	674.2299	-594.7544999999999	208.09208000000035	750.58698	-494.30455000000006	194.44822000000022	712.83267	-517.9588599999998	193.92587000000094	688.0421499999999	-541.8367799999999	202.27456999999958	675.2593300000001	-560.1998099999998	213.59909999999945	669.5284600000001	-573.75552	213.9906200000005	745.0024099999999	-486.97279	204.6772600000004	706.8652800000001	-504.07908	205.48220000000038	685.4742699999998	-521.44636	212.16350000000057	675.4056399999998	-533.9923100000001	222.53573000000142	669.90038	-545.51236
205	1.7	446.8050000000003	859.65103	-201.189	494.4427799999994	825.5557499999999	-273.95507	390.25758999999925	420.05295000000007	-276.11195999999995	550.2401800000007	53.000209999999996	-412.53371	514.0908400000008	-34.8619	-246.66604	407.07116999999926	865.04627	-115.31987	299.6500099999994	470.78134000000006	-24.13563	231.50730000000112	63.94839999999999	64.4274	298.7670699999999	-6.042159999999999	229.09693	409.2637599999998	987.0852299999999	-254.04818000000006	360.50882999999885	1058.1406599999998	-298.83501	304.4535199999991	1127.9462499999997	-345.87778	243.0327899999993	1187.57459	-391.98110999999994	174.48984999999902	1248.73786	-438.51644	107.00766999999996	1307.9950599999997	-405.6334800000001	72.02003999999943	1391.10833	-274.07247	206.6654299999991	1218.9293899999998	-451.50844	244.8336900000013	1153.22828	-554.03502	177.74211999999898	901.97702	-500.44387	158.6456900000003	697.5108400000001	-659.97741	183.8432300000004	689.7767000000001	-690.01387	181.1923800000004	680.0219199999999	-725.42678	176.24963000000116	670.37613	-748.6006500000001	169.47991999999977	659.8945499999998	-766.64701	177.25711000000047	677.8826300000001	-686.8999599999999	184.67338999999993	641.4571800000002	-724.85247	178.06745000000046	621.23007	-754.1306100000002	169.44870999999966	616.6161899999998	-772.17336	159.27160999999887	618.1674400000002	-786.99978	168.01713999999993	671.63536	-681.66897	170.25620999999956	632.72646	-715.85645	161.7898699999996	609.95489	-746.99498	150.78799999999956	604.0526500000001	-768.3743200000002	139.35894000000008	605.5867700000001	-784.4081999999999	161.40056000000004	668.0732799999998	-676.9734999999998	157.95820999999887	629.88309	-703.44477	149.28851999999915	609.3822499999999	-729.70406	137.99107000000004	603.3422799999998	-749.85818	126.92011999999977	604.6204200000002	-764.7123199999999	152.76635000000078	665.6367400000001	-670.7086399999998	144.6264200000005	628.83364	-691.03295	135.68516999999974	611.5656200000001	-710.5704800000001	126.47782999999981	606.74804	-724.55025	116.11428999999953	607.6431500000001	-737.29381	189.46869999999944	1241.5878099999998	-394.18618	157.6887999999999	1236.5220900000002	-270.10245999999995	118.04465999999957	1005.19999	-392.70070000000004	207.23571000000084	771.8022200000001	-460.66539	181.90668000000096	770.4762800000001	-491.54587000000004	181.35995999999977	755.4834999999998	-525.1788100000001	182.61318999999912	741.4412299999999	-546.5269699999999	185.05576999999903	726.6539699999998	-562.5499100000001	183.0237100000004	757.52818	-486.48215999999996	162.54728999999952	721.99495	-520.2507	161.20506000000023	696.8226299999999	-546.22255	167.71333999999933	686.61977	-562.79527	178.05315000000064	681.8488599999996	-576.79989	188.79403000000002	748.94885	-479.78387	171.9394399999992	709.6503599999999	-509.09686	171.3187200000002	681.1650400000001	-536.44705	179.57571000000007	668.36749	-555.9662299999999	191.0862300000008	662.90995	-571.0587900000002	193.26883999999882	743.76821	-474.15786	181.6840999999995	703.9753900000001	-495.45092	182.03358000000117	678.1698900000001	-518.23145	190.47103999999945	665.3065000000003	-536.49739	201.5179500000013	659.92903	-550.4219500000002	199.99991999999838	739.0322500000001	-466.94688999999994	193.09994000000006	699.5157700000002	-481.93494999999996	194.82052999999905	677.5002700000002	-498.43351999999993	201.67179000000033	667.4639400000002	-510.91352000000006	211.85865000000013	662.3241500000001	-522.76312
